General

Format                           : MPEG-4
Format profile                   : Base Media
Codec ID                         : isom
File size                        : 77.8 MiB
Duration                         : 3mn 17s
Overall bit rate                 : 3 304 Kbps
Encoded date                     : UTC 2012-06-11 05:59:53
Tagged date                      : UTC 2012-06-11 05:59:53

Video
ID                               : 1
Format                           : AVC
Format/Info                      : Advanced Video Codec
Format profile                   : High@L3.0
Format settings, CABAC           : Yes
Format settings, ReFrames        : 2 frames
Codec ID                         : avc1
Codec ID/Info                    : Advanced Video Coding
Duration                         : 3mn 17s
Bit rate mode                    : Variable
Bit rate                         : 3 259 Kbps
Maximum bit rate                 : 5 134 Kbps
Width                            : 720 pixels
Height                           : 480 pixels
Display aspect ratio             : 16:9
Original display aspect ratio    : 16:9
Frame rate mode                  : Constant
Frame rate                       : 25.000 fps
Standard                         : NTSC
Color space                      : YUV
Chroma subsampling               : 4:2:0
Bit depth                        : 8 bits
Scan type                        : Progressive
Bits/(Pixel*Frame)               : 0.377
Stream size                      : 75.9 MiB (98%)


Audio
ID                               : 2
Format                           : AAC
Format/Info                      : Advanced Audio Codec
Format profile                   : LC
Codec ID                         : 40
Duration                         : 3mn 17s
Bit rate mode                    : Variable
Bit rate                         : 75.4 Kbps
Maximum bit rate                 : 85.5 Kbps
Channel(s)                       : 2 channels
Channel positions                : Front: L R
Sampling rate                    : 44.1 KHz
Compression mode                 : Lossy
Stream size                      : 1.77 MiB (2%)